<?xml version="1.0" standalone="no"?>
<!DOCTYPE svg PUBLIC "-//W3C//DTD SVG 20010904//EN"
 "http://www.w3.org/TR/2001/REC-SVG-20010904/DTD/svg10.dtd">
<svg version="1.0" xmlns="http://www.w3.org/2000/svg"
 width="300.000000pt" height="300.000000pt" viewBox="0 0 300.000000 300.000000"
 preserveAspectRatio="xMidYMid meet">
<metadata>
Created by potrace 1.10, written by Peter Selinger 2001-2011
</metadata>
<g transform="translate(0.000000,300.000000) scale(0.100000,-0.100000)"
fill="#000000" stroke="none">
<path d="M1897 2833 c-11 -10 -8 -103 3 -103 6 0 10 9 10 20 0 13 7 20 20 20
25 0 41 29 29 52 -9 18 -49 25 -62 11z m51 -30 c-2 -10 -13 -19 -26 -21 -17
-3 -22 2 -22 17 0 16 6 21 26 21 19 0 25 -5 22 -17z"/>
<path d="M1990 2791 l0 -51 38 2 c33 1 34 2 7 5 -29 4 -30 6 -27 42 2 21 -1
42 -7 45 -7 5 -11 -9 -11 -43z"/>
<path d="M2100 2793 c-11 -25 -18 -48 -15 -51 2 -3 7 3 11 12 9 23 41 20 54
-5 7 -11 13 -19 16 -17 6 6 -29 108 -37 108 -5 0 -17 -21 -29 -47z"/>
<path d="M2190 2792 c0 -29 4 -51 9 -48 4 3 6 18 4 33 l-5 28 21 -25 c11 -14
21 -28 21 -32 0 -5 5 -8 10 -8 6 0 9 23 9 53 -2 51 -2 51 -8 12 l-6 -40 -27
40 -28 40 0 -53z"/>
<path d="M1120 2730 l0 -60 33 0 c30 0 32 -2 33 -39 l2 -38 -76 -7 c-41 -3
-93 -6 -114 -6 l-40 0 7 -60 7 -60 -32 0 -31 0 3 -52 3 -53 68 -3 67 -3 0 62
0 62 -35 -6 -35 -6 0 55 0 54 74 0 c40 0 88 3 105 6 l31 7 0 -57 c0 -53 -1
-56 -25 -56 -25 0 -26 -2 -23 -57 l3 -58 63 -3 62 -2 0 65 0 65 -30 0 c-26 0
-30 4 -30 28 0 15 -3 37 -6 50 -6 22 -5 22 99 22 116 0 117 -1 117 -66 0 -31
-2 -34 -31 -34 l-32 0 7 -46 c3 -26 6 -53 6 -61 0 -11 14 -13 63 -11 l62 3 3
58 3 57 -35 0 -35 0 -3 58 -3 57 -112 0 -113 -1 0 38 c0 37 1 38 35 38 l35 0
0 60 0 60 -75 0 -75 0 0 -60z m140 12 c0 -41 -10 -49 -67 -57 l-53 -7 0 46 0
45 53 3 c65 4 67 3 67 -30z m220 -317 c0 -37 -3 -45 -19 -45 -10 0 -33 -3 -50
-6 l-31 -6 0 45 c0 44 1 46 33 50 70 9 67 10 67 -38z m-220 -10 l0 -45 -50 0
-50 0 0 45 0 45 50 0 50 0 0 -45z m-226 -2 c-4 -21 -8 -39 -9 -40 -1 -2 -23
-6 -48 -9 l-47 -7 0 47 0 46 55 0 56 0 -7 -37z"/>
<path d="M2078 2693 c-16 -2 -28 -10 -28 -17 0 -8 -27 -16 -82 -22 -80 -9 -83
-10 -81 -34 0 -14 6 -119 13 -235 6 -115 14 -225 16 -244 l5 -34 112 7 c62 3
168 9 236 12 l124 7 -8 221 c-4 122 -8 242 -9 269 l-1 47 -82 0 c-67 0 -83 3
-83 15 0 12 -12 15 -52 14 -29 -1 -65 -4 -80 -6z m-10 -42 c-17 -27 -35 -33
-42 -14 -4 11 -2 14 9 9 9 -3 19 3 26 15 6 11 13 19 16 16 2 -3 -1 -14 -9 -26z
m140 14 c34 -11 26 -22 -15 -22 -21 0 -46 -3 -57 -8 -16 -7 -17 -6 -7 13 9 16
8 20 -4 18 -8 -1 -18 -6 -22 -11 -4 -4 -1 -5 7 0 12 6 13 5 3 -5 -7 -8 -19
-15 -27 -16 -12 -2 -13 3 -4 21 9 20 16 23 57 20 25 -2 56 -6 69 -10z m156
-135 c3 -71 9 -188 12 -258 l7 -129 -189 -7 c-104 -4 -205 -9 -225 -12 l-36
-6 -7 118 c-4 66 -12 181 -18 257 -6 76 -9 139 -7 141 2 2 28 6 57 8 47 5 52
3 52 -15 0 -18 5 -19 53 -13 28 3 82 6 120 6 60 0 67 2 67 20 0 18 7 20 54 20
l53 0 7 -130z"/>
<path d="M1982 2554 c-38 -27 -20 -94 26 -94 50 0 80 61 46 94 -20 20 -43 20
-72 0z m72 -20 c10 -26 -12 -54 -43 -54 -31 0 -45 21 -36 51 8 24 70 27 79 3z"/>
<path d="M2188 2543 c-62 -3 -98 -8 -98 -15 0 -6 9 -8 23 -4 12 3 61 6 110 6
51 0 87 4 87 10 0 6 -6 9 -12 8 -7 -1 -57 -4 -110 -5z"/>
<path d="M2125 2499 c-18 -4 16 -5 80 -2 61 3 112 7 114 9 8 8 -164 2 -194 -7z"/>
<path d="M1992 2424 c-31 -21 -30 -69 2 -90 58 -37 121 51 64 90 -28 20 -38
20 -66 0z m72 -26 c15 -24 -3 -52 -36 -56 -32 -4 -52 20 -44 53 6 22 12 26 38
23 17 -2 36 -11 42 -20z"/>
<path d="M2019 2408 c-8 -35 -5 -58 5 -58 15 0 19 47 5 56 -5 3 -9 4 -10 2z"/>
<path d="M2130 2410 c-16 -5 11 -8 78 -9 62 -1 102 3 102 9 0 12 -143 12 -180
0z"/>
<path d="M2110 2360 c0 -9 198 -3 209 6 2 2 -44 4 -102 4 -65 0 -107 -4 -107
-10z"/>
<path d="M1997 2282 c-20 -22 -22 -63 -5 -80 7 -7 26 -12 43 -12 17 0 36 5 43
12 20 20 14 65 -10 82 -29 21 -51 20 -71 -2z m77 -24 c14 -23 -3 -52 -33 -56
-42 -6 -67 38 -39 66 17 17 58 11 72 -10z"/>
<path d="M2027 2264 c-4 -4 -2 -14 5 -21 9 -11 9 -17 -3 -24 -12 -7 -11 -9 2
-9 9 0 19 6 22 14 7 17 -15 50 -26 40z"/>
<path d="M2160 2281 c-30 -3 -50 -9 -45 -12 16 -9 205 2 205 12 0 10 -69 10
-160 0z"/>
<path d="M2160 2230 c-36 -6 -25 -7 52 -8 55 -1 99 2 103 8 7 11 -83 11 -155
0z"/>
<path d="M2800 2601 c0 -26 -17 -36 -36 -20 -12 10 -19 8 -38 -10 -15 -14 -22
-30 -19 -42 4 -12 -1 -21 -13 -26 -37 -13 -46 -57 -17 -78 16 -12 16 -16 3
-40 -17 -31 -5 -58 29 -63 16 -3 20 -8 16 -21 -8 -27 40 -57 62 -40 12 11 17
10 28 -4 7 -9 27 -20 44 -23 27 -6 33 -3 38 15 5 18 11 21 33 16 32 -7 55 15
45 45 -4 13 -1 22 9 26 25 10 19 22 -9 19 -29 -4 -31 2 -11 30 7 11 14 24 14
28 0 5 4 12 8 15 4 4 4 1 -1 -7 -5 -10 -4 -12 4 -7 6 4 9 12 5 17 -3 5 -10 6
-16 3 -6 -4 -8 -1 -6 7 3 8 10 13 15 12 5 -1 10 5 10 12 0 11 -4 12 -14 4 -7
-7 -13 -7 -13 -2 0 6 -9 20 -20 33 -15 18 -17 26 -9 37 7 7 10 16 7 18 -3 3
-11 -1 -18 -9 -10 -13 -16 -13 -39 -3 -34 16 -48 15 -90 -6 -40 -20 -45 -21
-35 -5 4 6 3 8 -4 4 -6 -4 -10 1 -9 13 1 14 5 17 13 10 15 -12 55 3 74 27 13
17 12 17 -8 0 -19 -17 -22 -17 -16 -3 3 9 9 17 13 18 3 0 14 2 23 4 10 2 15
-2 12 -10 -3 -7 2 -20 11 -29 14 -14 20 -14 33 -4 13 11 14 11 7 -1 -5 -10 -4
-12 4 -7 6 4 9 11 6 16 -3 5 -1 11 4 15 15 9 35 -34 22 -49 -7 -9 -5 -16 9
-26 10 -7 16 -18 13 -23 -3 -6 -1 -7 6 -3 6 4 9 12 6 17 -4 5 -1 9 4 9 6 0 11
4 11 10 0 5 -7 7 -16 3 -14 -5 -16 -1 -12 21 4 20 0 33 -15 47 -18 17 -22 17
-37 4 -23 -21 -40 -19 -40 5 0 17 -7 20 -40 20 -33 0 -40 -3 -40 -19z m-50
-106 c-7 -8 -15 -13 -18 -10 -3 3 -12 -1 -20 -8 -13 -10 -14 -9 -7 3 19 34 39
50 48 41 7 -7 6 -16 -3 -26z m175 9 c67 -73 20 -184 -78 -184 -51 0 -107 52
-107 100 0 68 42 109 113 110 39 0 52 -5 72 -26z m-232 -49 c-4 -5 3 -2 14 8
21 18 21 18 18 -37 -1 -39 2 -56 11 -60 8 -3 14 -12 14 -21 0 -8 6 -14 13 -12
6 1 12 -6 12 -15 0 -23 11 -32 21 -17 5 8 3 10 -6 4 -9 -5 -11 -4 -6 4 4 6 12
9 17 5 5 -3 6 -11 2 -17 -5 -9 -3 -9 8 0 12 10 21 9 42 -2 19 -9 29 -10 33 -3
4 7 2 8 -4 4 -7 -4 -12 -5 -12 -2 0 6 72 50 87 52 9 2 10 -3 3 -15 -6 -12 -5
-22 1 -28 6 -6 5 -14 -3 -21 -16 -13 -44 1 -34 17 4 6 12 9 17 6 5 -4 6 2 2
11 -5 15 -12 11 -39 -21 -18 -22 -30 -43 -28 -47 8 -12 -28 3 -55 24 -14 10
-27 15 -30 10 -6 -9 -38 -8 -48 2 -3 3 -1 12 5 19 14 17 6 27 -23 27 -14 0
-26 10 -33 26 -7 14 -8 23 -3 19 5 -3 12 -1 15 4 8 12 -14 72 -24 66 -4 -2 -5
7 -2 21 3 18 7 22 13 13 4 -7 5 -18 2 -24z"/>
<path d="M94 2464 c-4 -10 -13 -34 -21 -53 -7 -19 -11 -36 -8 -39 2 -3 7 3 11
12 9 23 41 20 54 -5 21 -38 20 -14 -1 42 -25 65 -27 67 -35 43z"/>
<path d="M290 2454 l-12 -29 -19 24 c-11 13 -22 22 -24 19 -3 -3 4 -16 15 -31
11 -14 20 -37 20 -51 0 -14 5 -26 11 -26 6 0 9 10 7 23 -1 12 4 37 11 55 8 18
11 35 8 39 -4 3 -11 -7 -17 -23z"/>
<path d="M30 2438 c-1 -31 -1 -32 -15 -14 -11 14 -15 16 -15 5 1 -14 34 -59
44 -59 3 0 6 23 6 50 0 28 -4 50 -10 50 -5 0 -10 -15 -10 -32z"/>
<path d="M162 2418 c3 -49 5 -53 31 -56 15 -2 27 1 27 7 0 6 -9 11 -20 11 -17
0 -20 7 -20 45 0 25 -5 45 -11 45 -6 0 -9 -21 -7 -52z"/>
<path d="M350 2455 c-17 -20 -6 -43 22 -47 29 -4 21 -23 -9 -23 -29 1 -30 -11
-2 -20 27 -9 64 22 49 41 -6 6 -22 15 -36 18 -28 7 -23 23 10 36 l21 9 -21 0
c-12 1 -27 -6 -34 -14z"/>
<path d="M446 2418 c9 -71 14 -73 14 -5 0 33 -4 57 -10 57 -7 0 -8 -19 -4 -52z"/>
<path d="M502 2458 c-19 -19 -14 -28 23 -44 44 -18 36 -38 -11 -29 -40 7 -45
-1 -8 -15 30 -12 64 2 64 26 0 9 -13 21 -30 27 -37 14 -39 27 -4 27 14 0 23 4
19 10 -8 14 -38 13 -53 -2z"/>
<path d="M77 2296 c-41 -15 -77 -43 -77 -59 0 -6 10 -1 23 11 21 19 67 42 87
42 5 0 10 -15 12 -32 2 -28 7 -33 26 -31 13 2 25 -4 28 -12 8 -20 -14 -46 -35
-43 -12 2 -16 -5 -16 -29 0 -38 -16 -43 -30 -10 -13 29 -49 29 -53 0 -2 -15
-10 -23 -23 -23 -10 0 -19 -5 -19 -11 0 -6 12 -9 28 -7 22 2 26 7 24 26 -3 19
1 23 15 20 10 -2 17 -11 17 -21 -1 -10 5 -17 17 -17 13 0 19 -7 19 -24 0 -42
10 -56 35 -50 27 7 39 -8 30 -37 -6 -17 -12 -20 -37 -15 -25 5 -29 3 -24 -10
3 -9 6 -27 6 -40 0 -24 1 -24 72 -17 65 6 71 5 65 -11 -4 -10 -7 -49 -7 -87 0
-62 -2 -70 -25 -85 -14 -9 -45 -19 -69 -21 -54 -7 -86 19 -86 70 0 45 -25 77
-58 76 -21 -1 -23 -2 -7 -6 33 -8 45 -24 45 -57 0 -17 9 -46 20 -63 18 -31 24
-33 73 -33 40 0 63 6 88 23 34 23 34 23 40 117 4 74 12 108 33 155 33 70 44
157 27 208 -31 92 -157 141 -264 103z m160 -17 c44 -16 82 -59 89 -98 3 -20 8
-44 11 -53 4 -15 -3 -18 -41 -18 -41 0 -46 -2 -43 -22 1 -17 -4 -24 -22 -26
-21 -3 -23 0 -19 22 5 24 3 26 -33 26 -34 0 -39 3 -39 23 0 14 9 26 23 32 33
15 31 67 -3 75 -16 4 -26 14 -28 28 -3 20 1 22 37 22 22 0 52 -5 68 -11z m-41
-200 c-2 -49 65 -49 72 0 3 16 10 21 34 21 29 0 30 -2 25 -32 -3 -18 -17 -59
-31 -90 l-26 -58 -65 0 c-59 0 -65 2 -65 21 0 15 5 19 15 15 9 -3 24 3 35 14
26 26 13 64 -24 68 -21 3 -26 8 -26 33 0 25 4 29 28 29 23 0 28 -4 28 -21z"/>
<path d="M1436 2239 c-49 -38 -21 -90 48 -87 34 1 37 4 34 27 -2 20 -9 27 -30
29 -16 2 -28 -2 -28 -8 0 -7 8 -9 21 -5 15 5 20 3 17 -6 -8 -24 -35 -34 -52
-20 -34 28 -12 71 37 71 16 0 26 4 22 10 -10 16 -40 11 -69 -11z"/>
<path d="M1540 2253 c0 -5 9 -18 20 -28 12 -11 20 -31 20 -52 0 -18 5 -33 10
-33 6 0 10 14 10 31 0 17 9 42 20 56 11 15 18 29 14 32 -3 3 -14 -5 -24 -19
l-19 -25 -25 24 c-14 14 -26 20 -26 14z"/>
<path d="M980 2195 c0 -32 4 -55 11 -55 6 0 8 9 4 20 -8 25 0 25 32 0 15 -11
29 -17 32 -14 3 3 -4 13 -17 21 -21 15 -21 17 -6 34 23 26 11 49 -26 49 -30 0
-30 0 -30 -55z m53 31 c3 -12 -30 -32 -39 -24 -11 12 5 40 21 36 9 -2 17 -7
18 -12z"/>
<path d="M1102 2198 c-22 -52 -24 -78 -2 -39 6 12 19 21 30 21 11 0 24 -9 30
-21 7 -11 14 -19 16 -16 6 5 -37 107 -45 107 -4 0 -17 -23 -29 -52z"/>
<path d="M1170 2240 c0 -5 11 -10 25 -10 23 0 25 -4 25 -40 0 -23 5 -40 11
-40 8 0 10 14 6 40 -5 37 -3 40 19 40 13 0 24 5 24 10 0 6 -25 10 -55 10 -30
0 -55 -4 -55 -10z"/>
<path d="M1300 2200 l0 -50 45 0 c25 0 45 5 45 10 0 6 -16 10 -35 10 -26 0
-35 4 -35 16 0 12 7 15 25 12 14 -3 25 -1 25 3 0 5 -11 9 -25 9 -41 0 -31 28
13 33 34 3 33 4 -10 5 l-48 2 0 -50z"/>
<path d="M783 2224 c-7 -18 20 -44 45 -44 7 0 12 -6 9 -12 -2 -8 -19 -12 -43
-11 -36 2 -38 1 -20 -12 23 -18 31 -18 57 -5 23 13 25 49 4 55 -50 16 -51 17
-20 31 l30 13 -28 1 c-17 0 -30 -6 -34 -16z"/>
<path d="M877 2233 c17 -3 24 -15 31 -56 l10 -52 1 52 c1 48 3 52 29 56 15 2
0 4 -33 4 -33 0 -50 -2 -38 -4z"/>
<path d="M2707 2229 c-37 -21 -11 -108 48 -156 l37 -31 -3 -94 -4 -93 30 0
c28 0 30 3 33 38 4 46 26 45 30 -1 3 -28 7 -32 33 -32 l31 0 -7 100 -8 100 26
9 c14 5 29 16 34 23 10 16 11 138 1 138 -5 0 -8 -13 -8 -29 0 -34 -39 -86 -71
-94 -17 -4 -19 -3 -10 6 12 12 15 56 3 73 -14 22 -52 26 -77 10 -25 -17 -34
-59 -15 -71 18 -11 10 -23 -11 -18 -26 7 -59 59 -59 95 0 32 -9 40 -33 27z
m17 -60 c-2 -4 13 -24 33 -44 21 -20 38 -41 38 -45 0 -23 41 -35 61 -19 8 7
15 6 20 -2 5 -8 3 -9 -6 -4 -9 6 -11 4 -5 -5 6 -9 4 -11 -5 -5 -8 5 -11 4 -7
-2 4 -6 -1 -10 -10 -9 -10 0 -18 -5 -19 -11 -1 -7 -2 -14 -4 -15 -1 -2 -3 -13
-4 -26 -3 -22 -2 -22 20 5 13 15 23 23 24 18 0 -6 -6 -17 -12 -25 -11 -12 -10
-12 5 -1 19 15 24 2 6 -16 -19 -19 17 -9 39 11 19 16 20 16 19 -11 0 -15 2
-42 5 -59 5 -25 3 -31 -10 -30 -9 2 -17 15 -19 32 -5 36 -22 47 -48 30 -13 -9
-19 -22 -17 -39 3 -20 -1 -25 -15 -22 -10 1 -16 9 -14 16 2 8 4 47 5 88 2 72
2 74 -30 94 -18 12 -37 30 -44 41 -16 25 -26 99 -11 76 5 -8 8 -17 5 -21z
m159 7 c21 -16 22 -39 2 -56 -22 -18 -18 -30 10 -30 13 0 40 14 59 30 21 19
33 25 32 16 -3 -20 -37 -57 -47 -51 -4 3 -10 1 -14 -4 -3 -5 -15 -8 -26 -6
-17 4 -19 2 -9 -11 10 -12 9 -19 -6 -37 l-19 -22 23 19 c13 12 20 26 17 35 -3
8 -3 12 2 8 11 -12 12 -67 1 -67 -5 0 -6 5 -3 10 10 16 -1 11 -16 -7 -10 -11
-10 -14 -1 -9 18 11 15 -9 -5 -25 -11 -9 -14 -10 -9 -2 4 7 2 21 -3 31 -7 14
-6 25 4 39 13 18 13 22 0 33 -10 8 -19 9 -27 3 -17 -12 -37 -11 -40 2 -1 6 7
12 18 14 24 4 55 31 49 42 -3 4 -1 10 5 14 6 4 8 11 4 16 -3 5 -10 6 -16 3 -6
-4 -8 -2 -4 4 8 14 -21 9 -36 -6 -12 -12 -10 -13 14 -16 13 -1 20 -34 8 -41
-8 -5 -40 32 -40 47 0 11 31 38 43 38 7 0 20 -7 30 -14z"/>
<path d="M1174 2043 c4 -21 10 -47 13 -58 5 -18 4 -18 -11 -6 -27 22 -28 6 -1
-17 24 -21 25 -21 35 -2 12 23 13 33 1 26 -10 -7 -21 27 -21 67 0 15 -5 27
-11 27 -7 0 -9 -13 -5 -37z"/>
<path d="M2072 2033 c-12 -27 -21 -42 -22 -35 0 6 -5 12 -11 12 -6 0 -9 -12
-7 -27 3 -26 26 -40 29 -18 1 6 12 34 25 63 12 28 19 52 15 52 -5 0 -18 -21
-29 -47z"/>
<path d="M2225 1940 c-99 -5 -100 -5 -103 -31 -2 -15 3 -33 11 -40 12 -12 3
-26 -59 -94 l-74 -80 0 76 c0 68 2 77 20 82 15 4 20 14 20 40 0 20 -3 38 -7
40 -5 3 -50 3 -100 0 l-93 -6 0 -32 c0 -26 5 -34 23 -38 22 -6 22 -10 25 -176
l4 -169 -24 -4 c-19 -2 -24 -10 -26 -40 -3 -33 0 -38 22 -44 14 -3 44 -3 68 0
24 3 60 5 81 5 35 1 37 2 37 35 0 28 -4 35 -22 38 -19 2 -24 10 -26 42 -3 33
1 42 30 66 l33 28 34 -57 c25 -41 35 -68 35 -101 l1 -45 113 -3 113 -3 -3 38
c-3 34 -6 38 -33 41 -25 3 -43 21 -107 105 l-77 102 72 73 c55 55 78 72 99 72
26 0 28 3 28 39 0 22 -3 41 -7 43 -5 2 -53 1 -108 -2z m93 -27 c-7 -9 -12 -19
-11 -22 0 -3 -3 -5 -7 -4 -5 2 -47 -36 -94 -84 l-86 -87 17 -25 c9 -14 25 -32
34 -41 18 -14 17 -17 -12 -48 -29 -32 -31 -33 -45 -15 -29 36 -44 72 -34 78
10 6 15 -9 10 -30 -1 -5 7 -2 18 8 19 18 26 47 10 47 -5 0 -6 6 -2 13 4 6 -25
-19 -63 -56 -62 -61 -70 -72 -66 -100 3 -27 -2 -37 -33 -63 -27 -23 -31 -30
-17 -29 25 1 45 14 38 25 -9 14 15 23 29 11 7 -6 16 -8 19 -4 4 3 7 -5 7 -19
0 -26 0 -26 -85 -26 l-85 1 3 26 c2 14 9 26 16 26 6 0 15 5 19 12 9 15 8 336
-2 352 -5 7 0 21 10 34 17 20 16 19 -8 -2 -28 -24 -51 -21 -46 7 2 13 17 17
66 18 l63 2 -27 -29 c-35 -37 -55 -38 -23 -1 l24 27 -28 -25 c-24 -21 -26 -26
-13 -36 12 -8 13 -14 3 -25 -7 -8 3 -1 20 15 18 16 31 32 28 34 -9 9 27 42 45
42 10 0 16 -8 16 -23 0 -13 -6 -24 -13 -24 -10 0 -10 4 -1 16 9 11 6 11 -8 -2
-18 -15 -21 -27 -18 -69 3 -48 1 -54 -36 -95 -22 -23 -40 -45 -40 -49 0 -4 17
13 38 37 l39 43 0 -41 c0 -35 -6 -48 -34 -74 -43 -42 -43 -26 0 20 17 18 26
31 20 27 -14 -8 -17 4 -5 20 4 5 -7 -5 -24 -24 -22 -24 -30 -43 -30 -67 0 -18
4 -31 8 -29 10 6 10 -10 1 -20 -4 -3 -8 -14 -9 -23 -2 -8 45 31 104 88 59 57
103 107 99 110 -5 4 29 39 75 79 45 40 90 80 98 88 59 63 -170 -136 -272 -237
-49 -47 -88 -81 -88 -75 0 6 42 52 94 102 51 51 91 92 87 92 -3 0 21 26 53 59
41 41 54 61 45 66 -8 6 -10 4 -4 -6 7 -11 6 -12 -7 -2 -12 11 -18 9 -33 -7
-10 -11 -13 -20 -7 -20 6 0 14 5 17 10 3 6 11 10 18 10 7 0 5 -7 -5 -16 -21
-21 -48 -11 -48 17 0 14 5 19 15 16 8 -4 16 -3 19 1 2 4 39 8 81 9 69 2 75 0
63 -14z m-208 -176 c0 -1 -44 -45 -97 -97 -111 -109 -107 -93 6 23 64 65 91
87 91 74z m95 -126 c3 -5 0 -13 -6 -17 -8 -5 -9 -3 -4 7 8 12 6 12 -8 0 -9 -7
-15 -17 -12 -21 3 -5 0 -12 -6 -15 -5 -4 -8 -14 -5 -22 4 -9 2 -11 -6 -7 -7 4
-8 3 -4 -4 5 -8 16 -5 37 10 31 23 37 33 15 25 -8 -3 -16 0 -19 7 -9 24 33 14
53 -12 11 -15 24 -32 29 -38 14 -17 -61 -81 -93 -81 -14 0 -23 3 -21 8 3 4 1
10 -5 14 -17 11 -11 25 11 25 11 0 17 -5 14 -10 -4 -6 -11 -7 -17 -4 -7 5 -8
2 -4 -5 6 -9 12 -9 25 3 26 24 37 19 15 -6 -10 -12 0 -7 24 12 46 37 51 43 25
33 -16 -6 -17 -5 -3 13 14 18 14 18 -2 5 -10 -7 -15 -17 -12 -22 3 -5 -2 -6
-11 -3 -14 6 -13 10 7 33 12 14 6 10 -15 -9 -32 -29 -39 -32 -48 -20 -27 42
-28 46 -3 78 26 33 39 39 49 23z m65 -131 c-14 -10 -22 -21 -19 -24 3 -3 16 5
28 18 27 29 61 24 61 -8 0 -20 -5 -22 -60 -22 l-60 -1 27 29 c15 15 32 28 37
28 6 0 0 -9 -14 -20z"/>
<path d="M2191 1859 c-39 -33 -71 -63 -71 -66 0 -3 30 21 68 53 37 32 71 61
77 66 5 4 6 8 3 8 -4 0 -39 -27 -77 -61z"/>
<path d="M1945 1830 c-30 -32 -39 -56 -24 -66 5 -3 6 -11 2 -17 -18 -28 -10
-38 13 -16 13 12 22 25 19 27 -3 3 1 12 7 20 10 11 21 82 13 82 -1 0 -14 -14
-30 -30z m21 -14 c-1 -13 -7 -30 -14 -38 -6 -8 -10 -17 -7 -20 3 -3 -3 -11
-12 -19 -16 -13 -17 -12 -5 3 8 10 9 19 3 22 -13 9 -8 32 14 56 23 25 22 25
21 -4z"/>
<path d="M1930 1525 c-24 -24 -46 -42 -50 -40 -4 2 -7 -3 -7 -11 0 -9 23 7 54
38 29 29 53 54 53 55 0 7 -9 0 -50 -42z"/>
<path d="M1484 1915 c-46 -27 -74 -75 -74 -125 0 -69 54 -124 150 -155 30 -9
66 -24 79 -32 21 -14 25 -13 52 13 16 15 31 25 34 22 3 -3 -8 -17 -24 -31 -22
-18 -28 -30 -24 -46 8 -31 -23 -61 -64 -61 -49 0 -101 25 -115 54 -9 21 -18
26 -49 26 -37 0 -38 -1 -44 -43 -4 -23 -5 -58 -3 -77 3 -33 6 -35 42 -38 21
-2 42 1 45 6 4 7 26 5 61 -4 65 -17 74 -17 125 -3 46 13 111 73 120 112 10 39
-2 93 -28 122 -13 15 -66 43 -127 68 -99 40 -105 44 -108 74 -5 46 21 66 77
60 38 -4 52 -12 81 -46 26 -30 43 -41 63 -41 l28 0 -3 82 -3 81 -35 0 c-19 0
-43 -4 -52 -8 -10 -4 -32 -2 -49 4 -53 18 -110 13 -155 -14z m141 1 c47 -9 61
-21 56 -48 -2 -13 5 -9 30 19 13 14 19 23 12 19 -6 -3 -14 -3 -17 2 -2 4 10 8
28 9 33 1 34 0 34 -43 1 -24 -3 -44 -7 -44 -15 0 -20 27 -8 41 7 8 -3 1 -20
-15 l-32 -29 -28 28 c-16 16 -22 25 -16 21 9 -5 11 -2 7 9 -6 14 -8 14 -24 0
-14 -13 -23 -14 -38 -6 -17 9 -26 4 -60 -27 -37 -34 -39 -40 -31 -68 6 -22 19
-36 41 -45 18 -8 36 -13 41 -11 15 4 6 -13 -20 -40 -26 -27 -26 -27 -3 -23 13
2 33 14 45 25 19 18 26 19 49 9 l26 -12 -27 -31 -28 -30 33 27 c39 32 48 33
61 10 6 -10 11 -13 11 -8 0 6 7 -1 15 -15 13 -23 11 -27 -23 -65 l-37 -40 35
33 c20 17 39 32 43 32 10 0 5 -70 -5 -76 -5 -3 -6 -9 -4 -13 7 -10 -52 -66
-60 -58 -4 3 -13 -1 -21 -9 -25 -24 -183 -6 -183 22 0 3 4 3 9 0 5 -3 14 1 20
8 10 11 9 14 -3 12 -19 -3 -57 -36 -51 -45 2 -4 -5 -8 -16 -8 -28 -2 -23 12
14 42 20 16 25 23 12 19 -19 -6 -19 -6 -4 11 15 15 19 16 40 2 13 -9 46 -17
73 -20 61 -5 97 21 98 71 1 23 9 40 29 56 24 20 26 25 12 30 -10 4 -26 -2 -39
-15 -24 -22 -24 -22 -59 -3 l-35 18 28 31 c26 29 25 29 -9 -3 -19 -18 -39 -29
-42 -25 -4 4 -13 8 -20 9 -7 1 -25 7 -41 13 l-29 12 29 32 29 32 -31 -28 c-31
-28 -33 -28 -52 -11 -12 10 -19 21 -16 26 3 4 1 8 -5 8 -5 0 -8 9 -6 20 2 11
0 20 -5 20 -5 0 -5 13 0 29 4 16 6 31 4 34 -8 7 76 78 86 72 5 -3 12 0 15 6 7
10 18 9 90 -5z m110 -75 c-3 -5 3 -12 13 -15 24 -8 24 -32 1 -33 -27 -2 -44
23 -29 42 14 16 25 21 15 6z m-251 -295 c3 -11 -1 -28 -9 -36 -8 -9 -13 -19
-10 -22 3 -2 -5 -14 -18 -26 l-23 -22 -1 65 -1 65 28 -2 c19 -1 31 -9 34 -22z"/>
<path d="M1502 1864 c-41 -37 -58 -59 -58 -77 0 -18 4 -23 16 -19 13 5 13 4 0
-14 -11 -14 -8 -13 11 4 14 12 26 29 26 37 0 13 -3 12 -19 -2 -32 -29 -27 -9
7 29 18 20 35 34 37 32 3 -2 19 11 37 29 53 55 8 40 -57 -19z"/>
<path d="M1478 1746 c-23 -21 -25 -25 -11 -31 10 -3 24 2 35 15 10 11 13 15 6
10 -22 -18 -32 -10 -13 10 24 27 16 25 -17 -4z"/>
<path d="M1690 1507 c-36 -34 -56 -54 -45 -44 26 21 42 23 25 2 -29 -35 -2
-20 48 26 59 54 64 68 7 18 -20 -18 -38 -29 -41 -27 -3 3 16 24 42 47 26 22
43 41 38 41 -5 -1 -38 -29 -74 -63z"/>
<path d="M1449 1555 c-1 -3 -3 -9 -4 -15 -1 -5 -3 -11 -5 -12 -1 -2 -3 -11 -5
-22 -3 -16 -1 -16 21 5 18 17 21 25 13 36 -12 14 -18 16 -20 8z"/>
<path d="M634 1916 c-3 -8 -4 -27 -2 -43 2 -20 8 -28 23 -28 19 0 20 -8 23
-173 l2 -172 -25 0 c-24 0 -26 -3 -23 -37 l3 -38 103 -3 102 -3 0 41 c0 35 -3
40 -22 40 -22 0 -23 3 -20 60 4 60 4 60 35 60 30 0 35 -5 82 -98 l50 -97 73
-3 73 -3 -3 43 c-3 40 -5 43 -33 43 -27 0 -33 7 -64 68 l-33 68 30 32 c44 48
55 74 48 120 -10 60 -40 103 -86 121 -55 22 -328 23 -336 2z m136 -3 c0 -2
-17 -19 -37 -39 -36 -34 -35 -34 12 4 66 55 72 43 9 -16 -28 -26 -40 -39 -28
-28 13 10 28 15 35 11 7 -5 10 -4 5 3 -3 6 -3 13 2 16 4 3 8 -32 7 -77 0 -45
3 -85 7 -88 5 -3 -1 -14 -12 -24 -11 -10 -20 -13 -20 -7 0 6 5 14 10 17 8 5 7
12 -2 23 -11 13 -11 14 1 7 10 -6 12 -4 6 4 -5 9 -15 6 -34 -13 -32 -31 -41
-68 -9 -39 23 20 24 6 1 -19 -40 -44 -17 -47 27 -3 26 26 53 46 60 43 7 -2
-16 -29 -49 -61 -34 -31 -58 -57 -53 -57 5 0 9 -7 9 -15 0 -8 -5 -12 -11 -9
-6 3 -3 -1 7 -9 12 -10 14 -17 7 -22 -5 -3 -8 -10 -6 -14 3 -4 -10 -23 -29
-41 -32 -31 -35 -32 -35 -12 0 12 10 28 23 36 21 15 22 19 21 191 -1 137 -4
179 -15 185 -7 5 -16 7 -20 5 -3 -3 -6 7 -6 21 0 17 4 24 13 20 7 -3 16 -2 18
3 4 7 86 10 86 4z m105 -3 c4 6 13 7 23 2 9 -5 27 -7 40 -6 28 2 28 -4 0 -33
-31 -33 -47 -29 -17 4 22 26 23 27 1 9 -24 -21 -127 -32 -137 -16 -3 5 7 18
21 29 20 15 31 18 44 11 13 -7 21 -7 25 0z m87 -43 c-12 -13 -19 -27 -15 -30
3 -4 2 -7 -4 -7 -23 0 -22 15 4 42 14 15 29 26 31 23 3 -3 -4 -16 -16 -28z
m34 7 c-3 -8 -2 -12 4 -9 15 9 39 -48 38 -94 0 -45 -30 -91 -72 -112 -13 -7
-6 4 18 30 56 58 55 80 -2 32 -26 -21 -60 -53 -76 -70 -25 -26 -27 -31 -13
-37 9 -3 14 -11 10 -18 -3 -6 6 0 20 13 15 13 24 28 21 32 -3 5 2 6 10 3 9 -3
14 -10 11 -14 -3 -5 -1 -11 5 -15 6 -4 8 -10 5 -15 -3 -4 2 -11 11 -14 8 -3
13 -10 9 -15 -3 -5 -1 -12 5 -16 6 -4 8 -11 5 -16 -4 -5 -1 -9 6 -9 7 0 2 -11
-11 -25 -30 -32 -33 -51 -10 -51 10 0 16 5 13 10 -3 5 -1 6 4 3 6 -4 16 0 22
7 9 11 9 16 0 22 -8 4 -9 3 -5 -4 5 -8 1 -10 -9 -6 -11 5 -13 10 -6 17 7 7 15
6 26 -3 8 -7 25 -13 38 -14 15 -1 22 -8 23 -22 1 -18 -5 -20 -63 -20 l-63 -1
-40 81 c-58 120 -81 138 -135 109 -18 -10 -20 -20 -18 -79 3 -65 -7 -94 -30
-94 -5 0 -2 9 8 20 29 31 12 23 -20 -10 -26 -27 -27 -29 -7 -25 12 2 26 6 31
10 5 3 13 0 16 -6 5 -7 16 -3 31 12 l24 23 -3 -24 c-4 -25 -41 -38 -52 -19 -5
6 -11 7 -19 0 -6 -5 -21 -8 -31 -6 -11 2 -27 4 -35 4 -9 1 3 18 31 44 25 23
38 36 29 30 -22 -17 -35 -16 -21 0 6 8 8 16 6 19 -3 3 -7 14 -9 25 -5 26 105
139 127 130 8 -3 20 0 26 6 6 6 11 7 11 2 0 -5 14 4 30 20 17 16 30 33 30 39
0 6 17 28 38 51 l37 40 -37 -34 c-44 -40 -51 -31 -10 13 25 29 25 29 1 8 -29
-25 -48 -30 -29 -7 7 8 9 15 4 15 -4 0 3 11 16 25 27 29 35 32 26 9z m-87 -50
c37 -31 39 -57 6 -89 -18 -19 -35 -25 -70 -25 l-45 0 0 70 0 70 39 0 c28 0 49
-8 70 -26z m68 -132 c-26 -27 -45 -51 -42 -54 10 -10 -20 -27 -34 -19 -9 6 6
24 50 65 76 69 90 73 26 8z"/>
<path d="M730 1815 c-38 -41 -34 -62 5 -25 19 18 32 37 29 42 -7 11 -8 11 -34
-17z"/>
<path d="M990 1785 c-19 -19 -30 -35 -25 -35 5 0 -15 -26 -45 -57 l-55 -57 65
59 c36 32 74 68 85 79 l20 20 -21 -17 c-34 -28 -40 -19 -9 13 16 17 27 30 24
30 -3 0 -20 -16 -39 -35z"/>
<path d="M939 1604 c-16 -20 -20 -42 -8 -50 5 -3 6 -11 3 -17 -4 -7 -3 -8 2
-4 5 5 9 12 9 15 0 4 5 14 10 22 22 34 8 63 -16 34z"/>
<path d="M749 1594 c-20 -24 -20 -44 -1 -36 15 5 15 4 2 -14 -11 -15 -11 -16
0 -7 20 19 22 43 2 36 -14 -5 -14 -3 2 15 11 12 17 22 14 22 -3 0 -12 -7 -19
-16z"/>
<path d="M970 1565 c-7 -8 -9 -15 -5 -15 4 0 3 -6 -2 -12 -8 -12 -9 -20 -4
-45 0 -3 10 2 20 11 16 15 20 33 11 56 -1 3 -2 8 -1 13 2 11 -5 8 -19 -8z"/>
<path d="M1135 1910 c-10 -31 3 -57 30 -64 l25 -6 0 -170 0 -170 -26 0 c-23 0
-25 -3 -22 -37 l3 -38 60 -3 c33 -2 79 -1 103 3 40 6 42 8 42 41 0 27 -4 34
-20 34 -23 0 -22 -4 -24 212 -1 124 0 128 20 128 24 0 37 31 27 68 -5 21 -10
22 -108 22 -95 0 -104 -2 -110 -20z m201 -23 c-1 -11 -11 -22 -20 -23 -10 -1
-20 -5 -23 -8 -3 -3 -6 -79 -7 -168 -1 -159 -5 -188 -28 -188 -6 0 -3 10 8 23
10 12 12 16 4 10 -23 -21 -35 -15 -15 7 10 11 15 20 10 20 -4 0 -1 8 6 18 7 9
-1 4 -19 -12 -21 -20 -29 -33 -22 -40 6 -6 4 -16 -7 -28 -11 -13 -12 -18 -3
-18 10 0 10 -4 -1 -17 -7 -10 -2 -8 12 5 14 12 29 22 34 22 4 0 0 -10 -11 -22
-17 -21 -17 -21 8 1 15 13 25 28 22 32 -3 5 0 9 5 9 16 0 13 -21 -6 -44 -14
-16 -12 -16 9 3 28 25 48 22 45 -7 -1 -16 -12 -18 -89 -18 -48 0 -88 3 -88 6
0 3 6 12 13 19 10 11 10 13 0 7 -7 -4 -13 -3 -13 3 0 5 12 11 27 13 l27 3 1
160 c1 186 -6 211 -50 206 -6 0 -11 9 -11 22 0 22 4 23 74 22 41 0 76 3 78 7
9 15 33 -5 30 -25z"/>
<path d="M1305 1900 c-3 -5 -11 -7 -18 -5 -7 2 -28 -9 -47 -26 -21 -18 -27
-27 -15 -23 18 7 19 6 5 -11 -14 -17 -14 -17 5 -7 22 11 93 82 83 82 -4 0 -9
-4 -13 -10z"/>
<path d="M1251 1821 c-14 -10 -26 -26 -27 -36 -1 -9 1 -14 4 -10 4 4 7 12 7
18 0 5 5 12 12 14 17 6 10 -22 -12 -49 -13 -16 -10 -14 10 4 16 15 30 39 31
53 0 14 0 25 0 25 -1 0 -12 -9 -25 -19z"/>
<path d="M1250 1745 c-24 -25 -35 -55 -21 -55 4 0 18 12 32 27 17 20 18 23 3
10 -34 -28 -40 -19 -9 13 16 17 26 30 24 30 -3 0 -16 -11 -29 -25z"/>
<path d="M1245 1680 c-25 -27 -28 -50 -7 -43 14 5 13 2 -3 -17 l-20 -23 21 11
c11 6 27 18 34 27 11 13 10 15 -6 9 -18 -7 -18 -6 1 17 11 13 13 18 5 12 -8
-7 -19 -13 -24 -13 -6 1 0 10 13 20 13 11 19 20 14 20 -6 0 -18 -9 -28 -20z"/>
<path d="M400 1902 c0 -4 21 -16 48 -25 26 -10 63 -27 82 -39 l35 -22 -25 -7
c-22 -6 -20 -7 13 -8 20 -1 37 2 37 7 0 14 -19 37 -32 38 -7 0 -43 15 -80 32
-73 35 -78 36 -78 24z"/>
<path d="M2503 1784 c-16 -7 -18 -104 -3 -104 6 0 10 8 10 18 0 9 10 22 23 27
29 13 31 59 2 62 -11 1 -26 -1 -32 -3z m42 -23 c3 -6 -4 -15 -15 -21 -17 -9
-20 -8 -20 10 0 20 24 28 35 11z"/>
<path d="M2587 1783 c-11 -10 -8 -103 3 -103 6 0 10 9 10 21 l0 20 30 -21 c17
-12 30 -17 30 -11 0 6 -9 15 -21 22 l-21 11 22 23 c12 13 19 28 15 34 -7 12
-58 15 -68 4z"/>
<path d="M2811 1773 c-23 -16 -28 -62 -9 -81 17 -17 53 -15 69 5 12 15 12 16
-6 9 -33 -13 -47 -12 -59 7 -16 25 5 53 38 50 30 -2 35 12 7 20 -11 3 -29 -2
-40 -10z"/>
<path d="M2904 1776 c-3 -8 -4 -31 -2 -52 3 -37 5 -39 41 -42 21 -2 37 1 37 7
0 6 -13 11 -30 11 -39 0 -41 27 -2 33 l27 4 -27 2 c-44 2 -36 31 8 31 21 0 33
4 29 10 -9 15 -75 12 -81 -4z"/>
<path d="M2680 1759 c-17 -31 -4 -68 26 -75 46 -12 85 51 52 84 -20 20 -66 15
-78 -9z m65 -24 c0 -25 -4 -30 -25 -30 -28 0 -39 27 -19 51 20 24 44 13 44
-21z"/>
<path d="M54 1359 l-18 -42 -17 39 c-10 22 -18 33 -18 26 -1 -20 27 -82 38
-82 10 0 47 88 39 95 -3 3 -13 -13 -24 -36z"/>
<path d="M159 1396 c-2 -3 -3 -25 -1 -50 l4 -46 39 0 c21 0 39 5 39 11 0 6
-14 9 -32 7 -43 -4 -48 19 -6 31 l33 9 -32 1 c-44 1 -42 17 5 29 l37 10 -41 1
c-22 1 -43 -1 -45 -3z"/>
<path d="M265 1383 c3 -10 9 -30 12 -46 7 -36 19 -42 35 -17 16 25 25 25 33 0
10 -32 22 -24 39 27 19 55 19 53 7 53 -5 0 -12 -13 -16 -30 -8 -37 -22 -46
-30 -20 -8 26 -22 26 -30 0 -8 -25 -25 -26 -25 -1 0 27 -10 51 -22 51 -6 0 -7
-8 -3 -17z"/>
<path d="M100 1353 c0 -21 5 -45 10 -53 7 -11 10 0 10 38 0 28 -4 52 -10 52
-5 0 -10 -17 -10 -37z"/>
<path d="M2675 1373 c-43 -2 -85 -9 -93 -15 -19 -16 -13 -377 7 -401 12 -15
39 -17 196 -17 101 0 190 3 199 6 9 3 15 16 15 28 -1 14 -3 16 -6 5 -3 -14
-25 -17 -136 -21 -73 -2 -161 -1 -197 2 l-65 5 -6 60 c-4 33 -7 117 -8 187 -1
113 1 128 17 137 24 13 369 18 382 5 5 -5 11 -50 13 -99 l3 -90 2 97 c2 87 0
98 -17 108 -19 9 -124 10 -306 3z"/>
<path d="M1475 1345 c-379 -16 -468 -26 -545 -61 -77 -35 -159 -121 -220 -232
-25 -45 -73 -127 -107 -182 -34 -55 -58 -100 -53 -100 11 0 93 130 161 254 94
173 184 250 321 276 62 12 593 39 793 41 77 1 169 5 205 9 108 12 -218 9 -555
-5z"/>
<path d="M440 1321 c0 -7 20 -11 53 -11 66 0 137 -23 167 -55 30 -32 36 -91
12 -135 -26 -48 -112 -106 -202 -135 -64 -21 -69 -24 -33 -21 51 5 155 52 200
90 17 14 41 46 53 71 18 37 20 50 11 82 -19 70 -80 107 -195 119 -47 5 -66 3
-66 -5z"/>
<path d="M2828 1209 c-82 -109 -83 -110 -98 -88 -8 13 -25 35 -37 49 l-22 25
-22 -22 c-20 -19 -21 -26 -11 -48 20 -44 92 -135 106 -135 15 0 178 214 204
268 16 32 16 35 -3 48 -10 8 -22 14 -27 14 -4 0 -45 -50 -90 -111z m118 79 c5
4 0 -3 -10 -15 -11 -13 -16 -23 -12 -23 10 0 -31 -58 -70 -100 -18 -19 -33
-39 -34 -45 -1 -20 -60 -93 -74 -91 -17 2 -87 92 -79 100 4 3 1 6 -5 6 -14 0
-16 46 -3 54 4 3 16 -3 26 -14 10 -11 14 -20 9 -20 -5 0 2 -7 14 -16 12 -8 20
-20 17 -25 -4 -5 -1 -9 4 -9 6 0 11 -5 11 -11 0 -8 -4 -8 -14 0 -10 8 -16 9
-21 1 -4 -6 -1 -9 7 -8 8 2 12 -5 10 -17 -2 -13 5 -8 20 15 12 19 51 70 87
114 36 43 66 81 66 85 1 19 18 31 29 22 7 -6 17 -7 22 -3z"/>
<path d="M2871 1216 c-20 -21 -27 -34 -18 -32 21 3 48 27 42 37 -3 4 3 12 12
18 10 6 13 11 7 11 -5 0 -25 -15 -43 -34z"/>
<path d="M2813 1147 c-19 -22 -25 -47 -10 -47 4 0 7 3 8 8 0 4 9 17 20 28 11
12 16 24 11 28 -5 3 -18 -5 -29 -17z"/>
<path d="M2675 1110 c-3 -4 1 -13 9 -19 10 -9 16 -8 26 4 7 8 11 15 9 16 -31
6 -40 6 -44 -1z"/>
<path d="M2757 1061 c-23 -27 -27 -38 -13 -38 8 0 12 7 8 15 -3 9 -1 13 5 9 6
-4 18 2 27 12 14 15 14 18 1 18 -8 0 -21 -7 -28 -16z"/>
<path d="M2090 1286 c0 -23 13 -56 21 -56 5 0 6 8 3 18 -5 14 -3 14 11 -3 33
-38 85 -160 102 -237 10 -43 21 -78 25 -78 11 0 10 8 -12 91 -22 86 -63 180
-97 226 l-24 31 22 -5 c14 -4 20 -2 16 4 -9 15 -67 22 -67 9z"/>
<path d="M295 1198 c5 -12 -5 -16 -47 -21 -68 -8 -115 -22 -155 -47 -28 -17
-33 -25 -33 -59 0 -23 8 -48 20 -63 26 -33 101 -64 176 -73 l62 -7 -7 34 c-6
31 -10 33 -58 39 -57 7 -163 38 -163 48 0 15 49 34 119 46 80 14 91 13 91 -11
0 -11 6 -14 23 -9 45 14 142 72 142 86 0 16 -60 38 -128 46 -39 5 -46 3 -42
-9z m123 -20 c6 -1 12 -4 12 -8 0 -3 -6 -12 -12 -20 -7 -8 -3 -6 10 4 12 11
22 14 22 8 0 -13 -35 -34 -43 -26 -3 3 -15 -4 -26 -15 -12 -12 -27 -21 -33
-21 -7 0 3 15 22 33 20 17 31 29 26 25 -17 -13 -29 -9 -17 5 21 27 -23 15 -54
-13 -32 -30 -88 -39 -78 -13 4 9 9 10 18 3 14 -11 60 31 48 44 -5 5 15 5 42 2
28 -4 56 -7 63 -8z m-130 -25 c-8 -10 -14 -10 -24 -2 -10 9 -16 6 -25 -14 -7
-16 -18 -24 -32 -23 -12 1 -28 -2 -35 -7 -7 -6 -15 -7 -19 -4 -3 4 -18 -2 -32
-12 -48 -33 -51 -34 -48 -10 2 13 10 25 18 27 8 3 21 11 30 19 9 7 20 13 25
12 5 -1 12 0 17 1 4 1 10 3 15 5 4 1 14 4 22 8 29 11 45 14 72 13 20 -1 24 -4
16 -13z m78 4 c-2 -15 -41 -67 -50 -67 -14 0 -4 36 16 57 24 26 37 30 34 10z
m-230 -148 c8 -6 14 -8 14 -5 0 4 10 1 23 -6 12 -6 38 -12 58 -13 38 -1 69
-19 69 -39 0 -7 -3 -7 -8 -1 -4 6 -23 11 -42 12 -30 1 -63 7 -80 13 -3 1 -8 2
-12 1 -5 0 -8 4 -8 10 0 5 -4 8 -9 4 -5 -3 -22 6 -38 19 -27 24 -27 25 -4 21
12 -2 29 -9 37 -16z"/>
<path d="M1385 1195 c-21 -9 -25 -14 -12 -14 15 -1 12 -9 -20 -45 -51 -58 -86
-132 -113 -236 -23 -91 -39 -260 -24 -260 5 0 10 36 12 79 3 93 39 247 75 317
14 27 41 69 60 94 20 24 33 48 30 54 -3 5 -1 6 6 2 7 -5 9 -17 5 -29 -4 -15
-3 -19 4 -12 12 13 25 65 15 65 -5 -1 -21 -7 -38 -15z"/>
<path d="M1642 1194 c-20 -14 -23 -24 -21 -67 3 -42 0 -52 -16 -58 -31 -12
-34 -11 -50 21 -8 16 -24 34 -34 40 -27 14 -69 -4 -81 -35 -5 -14 -14 -25 -19
-25 -14 0 -73 -190 -88 -286 -5 -35 18 -88 45 -103 9 -5 38 -12 64 -16 38 -6
56 -3 90 14 61 29 78 63 78 153 0 69 11 110 25 96 4 -3 12 -40 20 -82 7 -42
19 -83 26 -92 52 -63 175 -55 229 14 40 51 17 148 -66 280 -45 71 -135 162
-160 162 -11 0 -30 -7 -42 -16z m78 -19 c10 -12 9 -15 -4 -15 -20 0 -66 -29
-66 -42 0 -5 10 -2 22 6 32 23 73 20 102 -6 25 -23 118 -170 111 -176 -2 -2
-12 1 -23 7 -48 26 -129 5 -176 -45 -24 -26 -26 -27 -26 -8 0 11 -5 25 -12 32
-9 9 -7 16 6 31 15 17 16 24 5 63 -8 23 -14 54 -15 68 -1 14 -5 34 -9 46 -13
42 56 74 85 39z m-191 -68 c9 -11 3 -14 -33 -13 -34 1 -42 4 -34 14 14 16 53
15 67 -1z m23 -44 c12 -11 18 -30 18 -59 0 -30 5 -47 19 -56 15 -11 17 -21 12
-58 -4 -28 -9 -39 -13 -29 -9 23 -70 49 -113 49 -34 0 -102 -26 -92 -36 2 -2
21 3 42 12 87 36 192 -30 170 -108 -20 -71 -55 -98 -130 -98 -95 0 -143 59
-110 137 9 21 18 52 20 68 5 52 35 143 56 169 16 20 29 26 61 26 25 0 49 -7
60 -17z m78 -13 c8 -5 11 -10 5 -10 -5 0 -3 -5 5 -10 11 -7 7 -9 -16 -6 -20 2
-31 -1 -31 -10 0 -7 7 -10 15 -6 10 3 13 1 8 -6 -14 -23 -37 -13 -32 13 8 45
19 53 46 35z m16 -65 c0 -13 -2 -22 -5 -20 -2 3 -10 0 -18 -7 -10 -8 -17 -8
-26 1 -8 8 -6 15 11 27 12 8 20 20 17 25 -3 5 0 6 7 4 8 -3 14 -17 14 -30z
m234 -64 c36 -26 48 -82 27 -126 -41 -86 -191 -93 -229 -10 -15 34 -1 93 29
121 49 45 121 51 173 15z"/>
<path d="M1417 859 c-28 -16 -49 -73 -38 -103 24 -61 112 -76 162 -27 40 40
39 81 -2 115 -33 28 -88 34 -122 15z m112 -25 c19 -19 18 -20 -28 -69 l-46
-50 47 44 c26 25 51 42 54 38 4 -4 1 -13 -6 -22 -7 -8 -9 -15 -5 -15 5 0 0 -9
-10 -20 -10 -11 -20 -18 -23 -15 -3 3 -11 0 -18 -6 -7 -6 -21 -8 -31 -5 -10 3
-21 5 -24 3 -3 -1 -14 7 -25 17 -21 21 -28 62 -13 71 5 4 7 10 4 15 -10 15 35
38 71 35 19 -1 43 -11 53 -21z"/>
<path d="M1426 835 c-13 -10 -15 -15 -6 -15 9 0 8 -6 -6 -22 -10 -13 -12 -17
-4 -10 27 23 34 12 9 -15 -18 -21 -15 -20 12 5 48 44 61 41 19 -5 -20 -21 -12
-16 18 12 50 47 70 72 35 44 -15 -12 -16 -12 -11 3 8 19 -15 19 -34 0 -17 -17
-33 -15 -18 3 16 19 11 19 -14 0z"/>
<path d="M1731 894 c-42 -35 -44 -92 -5 -123 64 -50 164 -11 164 64 0 79 -94
114 -159 59z m111 5 c20 -11 19 -11 -8 -41 -16 -16 -38 -34 -49 -40 -11 -6 -2
9 20 33 l40 43 -57 -48 c-32 -27 -58 -51 -58 -54 0 -3 5 -1 12 6 19 19 32 14
17 -5 -13 -17 -12 -17 6 -4 11 8 37 31 58 50 31 30 39 33 47 21 12 -19 5 -59
-13 -77 -8 -8 -29 -16 -48 -19 l-34 -4 50 45 c28 24 46 45 42 45 -4 0 -29 -20
-55 -44 -47 -44 -48 -44 -71 -27 -13 10 -25 31 -27 49 -6 57 72 101 128 71z"/>
<path d="M1762 854 l-47 -47 45 38 c62 52 65 55 56 55 -4 0 -28 -21 -54 -46z"/>
<path d="M2231 815 c-24 -54 -27 -79 -7 -52 16 21 52 22 60 2 3 -8 10 -15 15
-15 9 0 -28 92 -42 106 -3 3 -15 -16 -26 -41z"/>
<path d="M2442 844 c-31 -21 -28 -33 13 -50 43 -18 37 -39 -8 -30 -23 5 -28 3
-20 -5 17 -17 67 -7 71 14 3 13 -6 22 -27 30 -35 13 -36 30 -3 35 12 2 20 8
17 13 -8 13 -17 11 -43 -7z"/>
<path d="M2527 853 c-9 -8 -9 -66 -1 -87 7 -18 84 -23 84 -6 0 6 -16 10 -35
10 -43 0 -49 27 -7 33 l27 4 -27 2 c-40 2 -37 31 2 31 17 0 30 5 30 10 0 11
-63 14 -73 3z"/>
<path d="M2646 844 c-19 -18 -13 -32 20 -44 35 -14 30 -33 -6 -28 -37 6 -40
-9 -4 -18 17 -4 31 -1 41 9 18 18 10 35 -24 48 -27 10 -22 29 8 29 11 0 17 5
14 10 -9 15 -31 12 -49 -6z"/>
<path d="M2751 844 c-29 -20 -26 -30 9 -43 29 -10 37 -21 24 -34 -3 -3 -17 -1
-31 4 -19 7 -24 6 -21 -3 3 -7 20 -13 39 -13 27 0 35 4 37 21 2 16 -4 24 -28
33 -33 11 -32 37 1 28 22 -6 26 8 5 16 -7 3 -23 -1 -35 -9z"/>
<path d="M2837 853 c-6 -12 -2 -91 6 -99 4 -4 7 10 7 31 0 37 1 38 19 21 18
-16 20 -16 35 6 16 22 16 22 16 -20 0 -24 5 -42 11 -42 7 0 9 9 5 23 -3 12 -6
38 -6 57 l-1 35 -23 -28 -23 -29 -21 26 c-11 15 -22 23 -25 19z"/>
<path d="M2337 843 c-17 -17 -5 -42 23 -48 17 -4 30 -11 30 -16 0 -16 -27 -21
-50 -9 -18 10 -21 9 -18 -2 3 -7 19 -13 39 -13 28 0 35 4 37 23 3 18 -2 23
-27 28 -37 8 -40 21 -8 34 21 8 21 9 1 9 -11 1 -24 -2 -27 -6z"/>
<path d="M2960 805 c0 -32 5 -47 15 -52 9 -3 19 -2 23 2 4 4 1 10 -5 12 -7 3
-13 11 -13 18 0 7 6 16 13 18 10 4 10 6 0 6 -7 1 -13 7 -13 15 0 8 6 17 13 19
6 3 2 6 -10 6 -21 1 -23 -4 -23 -44z"/>
<path d="M200 701 c-135 -21 -200 -38 -200 -51 0 -6 9 -6 23 -1 39 15 185 39
303 51 176 17 423 -11 486 -54 96 -65 43 -134 -132 -171 -144 -31 -583 -30
-664 1 -9 3 -16 2 -16 -4 0 -28 318 -49 506 -33 220 18 338 58 364 122 11 27
11 34 -7 57 -49 66 -148 91 -383 97 -129 4 -190 1 -280 -14z"/>
<path d="M204 583 c-11 -27 -20 -51 -22 -55 -2 -5 1 -8 7 -8 6 0 11 7 11 15 0
21 40 19 56 -2 7 -10 14 -13 14 -6 0 13 -37 103 -43 103 -2 0 -13 -21 -23 -47z"/>
<path d="M501 578 c-12 -28 -19 -53 -16 -56 2 -3 7 3 11 12 8 21 43 21 60 -1
7 -10 14 -13 14 -6 0 13 -37 103 -43 103 -3 0 -14 -23 -26 -52z"/>
<path d="M0 570 l0 -50 40 0 c22 0 40 5 40 10 0 6 -16 10 -35 10 -19 0 -35 5
-35 10 0 6 13 10 30 10 17 0 30 5 30 10 0 6 -13 10 -30 10 -17 0 -30 5 -30 10
0 6 13 10 30 10 17 0 30 5 30 10 0 6 -16 10 -35 10 l-35 0 0 -50z"/>
<path d="M90 613 c1 -5 11 -28 24 -53 l24 -44 21 43 c12 23 20 48 18 54 -2 7
-12 -6 -22 -28 l-18 -40 -15 38 c-13 32 -33 51 -32 30z"/>
<path d="M292 573 c3 -48 3 -48 42 -51 25 -2 36 0 31 7 -3 6 -17 11 -31 11
-21 0 -24 4 -24 40 0 22 -5 40 -11 40 -6 0 -9 -19 -7 -47z"/>
<path d="M380 586 c0 -38 23 -69 49 -64 23 5 44 54 34 81 -6 19 -8 16 -13 -18
-4 -32 -9 -40 -25 -40 -16 0 -21 8 -23 38 -4 46 -22 49 -22 3z"/>
<path d="M590 611 c21 -6 26 -15 31 -51 l6 -45 1 47 c2 35 6 48 20 51 9 3 -5
5 -33 5 -36 0 -43 -2 -25 -7z"/>
<path d="M690 570 l0 -50 39 0 c22 0 43 5 46 10 4 6 -8 10 -29 10 -44 0 -50
27 -8 33 l27 4 -27 2 c-19 0 -28 7 -28 17 0 12 7 15 30 12 17 -3 33 -1 36 4 3
4 -15 8 -40 8 l-46 0 0 -50z"/>
<path d="M1210 558 c-11 -12 -20 -30 -20 -40 0 -18 33 -58 48 -58 17 0 47 29
38 37 -5 4 -11 2 -13 -4 -6 -18 -42 -16 -49 2 -4 8 -3 26 0 40 5 18 13 25 32
25 14 0 23 4 19 10 -10 16 -33 11 -55 -12z"/>
<path d="M1322 564 c-24 -17 -30 -62 -10 -82 30 -30 88 -2 88 43 0 20 -32 55
-50 55 -3 0 -16 -7 -28 -16z m56 -20 c5 -9 7 -25 5 -35 -10 -35 -57 -34 -68 2
-13 40 43 68 63 33z"/>
<path d="M1490 538 l0 -43 -35 40 -34 40 -1 -52 c0 -29 5 -53 10 -53 6 0 10
14 10 30 l0 30 30 -32 29 -33 1 58 c0 31 -2 57 -5 57 -3 0 -5 -19 -5 -42z"/>
<path d="M1560 569 c-25 -3 -35 -7 -22 -7 19 -2 22 -7 22 -47 0 -26 5 -45 11
-45 7 0 10 17 7 45 -3 41 -1 44 22 47 14 2 21 5 15 8 -5 3 -30 3 -55 -1z"/>
<path d="M1658 573 c-14 -3 -18 -15 -18 -54 0 -27 5 -49 10 -49 6 0 10 9 10
20 0 26 8 25 37 -2 13 -12 26 -18 30 -14 4 4 -3 15 -16 25 -23 18 -23 19 -5
29 15 9 17 14 8 29 -12 19 -28 24 -56 16z m42 -28 c0 -8 -9 -15 -20 -15 -11 0
-20 7 -20 15 0 8 9 15 20 15 11 0 20 -7 20 -15z"/>
<path d="M1872 538 c-1 -27 -2 -51 -2 -55 0 -12 51 -13 69 -3 12 7 6 9 -21 10
-37 0 -37 0 -41 48 l-3 47 -2 -47z"/>
<path d="M1754 545 c-15 -23 -15 -27 0 -50 9 -14 25 -25 35 -25 23 0 51 31 51
56 0 47 -59 60 -86 19z m67 -1 c17 -21 0 -49 -32 -49 -27 0 -37 28 -19 50 16
19 34 19 51 -1z"/>
<path d="M2604 488 c4 -13 14 -63 22 -113 13 -76 25 -108 76 -200 83 -149 100
-177 105 -172 3 4 -86 171 -144 270 -2 4 2 7 10 7 7 0 21 -17 31 -37 36 -78
131 -243 139 -243 5 0 -2 19 -16 43 -64 108 -127 232 -127 247 0 54 40 25 89
-65 23 -41 59 -109 82 -151 23 -41 43 -73 46 -70 4 4 -119 240 -154 293 -8 11
-10 24 -6 26 5 3 49 -67 98 -156 100 -183 93 -172 100 -166 2 3 -37 80 -88
172 -79 143 -104 178 -176 252 -46 47 -86 85 -88 85 -3 0 -2 -10 1 -22z m143
-153 c-2 -5 -16 -9 -30 -7 -22 3 -27 -1 -27 -17 0 -22 -8 -26 -26 -13 -12 8
-36 131 -27 144 7 12 114 -93 110 -107z"/>
</g>
</svg>
